<svg width="20" height="20" viewBox="0 0 20 20" fill="none" xmlns="http://www.w3.org/2000/svg">
<path d="M11.4556 10.014L19.6753 1.8392C20.0694 1.4491 20.0694 0.817599 19.6753 0.428497C19.2822 0.0384005 18.6438 0.0384005 18.2507 0.428497L10.038 8.59631L1.74938 0.306758C1.3563 -0.0873193 0.717831 -0.0873193 0.324749 0.306758C-0.0683333 0.70183 -0.0683333 1.34129 0.324749 1.73537L8.60734 10.019L0.294812 18.2855C-0.0982705 18.6756 -0.0982705 19.3071 0.294812 19.6962C0.687894 20.0863 1.32636 20.0863 1.71944 19.6962L10.0249 11.4366L18.2806 19.6932C18.6736 20.0873 19.3121 20.0873 19.7052 19.6932C20.0983 19.2982 20.0983 18.6587 19.7052 18.2646L11.4556 10.014Z" fill="#CC4351"/>
</svg>
