<svg width="19" height="19" viewBox="0 0 19 19" fill="none" xmlns="http://www.w3.org/2000/svg">
<path d="M19 5.85949L9.32601 12.5861C9.58091 12.7713 9.84799 12.9039 10.1264 12.9845C10.4048 13.0657 10.7643 13.1058 11.2051 13.1058C12.1099 13.1058 13.0028 12.8978 13.8846 12.4818C14.4878 12.2047 15.0678 11.8233 15.6245 11.3379L18.6172 16.4343C17.2714 17.4051 15.8446 18.0985 14.337 18.5146C13.1768 18.8379 11.9936 19 10.7875 19C7.4002 19 4.70911 18.0179 2.71429 16.0529C0.904762 14.2734 0 12.0888 0 9.5C0 6.91148 0.904762 4.70377 2.71429 2.87774C4.61632 0.959246 7.0293 0 9.95238 0C11.8776 0 13.6465 0.491469 15.2592 1.47354C16.8715 2.45619 18.1181 3.91788 19 5.85949ZM11.9359 6.2062C11.6575 5.90601 11.3559 5.68613 11.0311 5.54744C10.7061 5.40876 10.3352 5.33942 9.91758 5.33942C9.08242 5.33942 8.36905 5.6113 7.77747 6.1542C7.1859 6.69767 6.89011 7.48905 6.89011 8.5292C6.89011 8.92243 6.97102 9.25759 7.1337 9.53467L11.9359 6.2062Z" fill="#F26C4F"/>
</svg>
